inDegrees=yes
name=ik_S53_A11_T01
DataType=double
version=3
OpenSimVersion=4.3-2021-08-27-4bc7ad9
endheader
time	pelvis_tilt	pelvis_list	pelvis_rotation	pelvis_tx	pelvis_ty	pelvis_tz	hip_flexion_r	hip_adduction_r	hip_rotation_r	knee_angle_r	knee_angle_r_beta	ankle_angle_r	subtalar_angle_r	mtp_angle_r	hip_flexion_l	hip_adduction_l	hip_rotation_l	knee_angle_l	knee_angle_l_beta	ankle_angle_l	subtalar_angle_l	mtp_angle_l	lumbar_extension	lumbar_bending	lumbar_rotation	arm_flex_r	arm_add_r	arm_rot_r	elbow_flex_r	pro_sup_r	wrist_flex_r	wrist_dev_r	arm_flex_l	arm_add_l	arm_rot_l	elbow_flex_l	pro_sup_l	wrist_flex_l	wrist_dev_l
11.99999999999983	-0.1952117315095204	-1.109492435232451	42.38456410015975	0	0.9399999999999999	0	31.12432704477319	-9.431224779951691	-8.776881592977771	33.80397237910574	0.5899906182686159	0	0	0	31.12432704477319	-9.431224779951691	-8.776881592977771	33.80397237910574	0.5899906182686159	0	0	0	-0.2416369957044624	-1.051910899730268	12.61338483008345	68.63487052300081	-11.08367292869854	20.8698316628142	58.77464002194819	49.98903538082053	0	0	6.673789344929919	-4.021269639060165	-6.653021941746504	5.927846731925309	109.9135663585644	0	0
12.01999999999983	-0.1578108083971953	-1.11704390574002	42.6948787310298	0	0.9399999999999999	0	31.13190910758319	-9.432275035770514	-8.778330338313344	33.81233556586602	0.5901365834135421	0	0	0	31.13190910758319	-9.432275035770514	-8.778330338313344	33.81233556586602	0.5901365834135421	0	0	0	-0.2197975059798191	-1.081259254245486	12.55925098743724	70.2141517213104	-10.7403412246555	21.49250577673712	58.76707914893699	49.16337084598739	0	0	6.687273877423843	-4.083088423720887	-6.506885312368691	5.962319033721086	109.8803186631798	0	0
12.03999999999983	-0.1572087004208475	-1.118927654090153	42.85425310304917	0	0.9399999999999999	0	31.14006904623168	-9.433403534033339	-8.779888245597572	33.82133921110087	0.5902937266675716	0	0	0	31.14006904623168	-9.433403534033339	-8.779888245597572	33.82133921110087	0.5902937266675716	0	0	0	-0.2225460884841463	-1.081249775452507	12.39439952680502	71.74431359009186	-10.2052745949414	22.37847571194876	58.720152887956	48.53058976840946	0	0	6.734748999199588	-4.124144747762269	-6.577542882000737	5.98516223731004	109.8440048541505	0	0
12.05999999999983	-0.1222975262516158	-1.127992539922194	43.12459044000781	0	0.9399999999999999	0	31.14425509854326	-9.433980050597981	-8.780685453532366	33.82597101376814	0.5903745668744181	0	0	0	31.14425509854326	-9.433980050597981	-8.780685453532366	33.82597101376814	0.5903745668744181	0	0	0	-0.2034845753092378	-1.110265811710122	12.34457055782129	73.07615870018441	-9.879028625074435	23.14551174423896	58.64241676715081	48.22621699824933	0	0	6.740255802855321	-4.164011411687799	-6.423695398123224	6.003160285938476	109.8209685335683	0	0
12.07999999999983	-0.05435278591757862	-1.13061466825849	43.50401443937658	0	0.9399999999999999	0	31.14793111371892	-9.43448571896772	-8.781385060265968	33.83004074886626	0.5904455971515643	0	0	0	31.14793111371892	-9.43448571896772	-8.781385060265968	33.83004074886626	0.5904455971515643	0	0	0	-0.154614880004412	-1.159000996559202	12.39443209905775	74.2522983415865	-9.781062627105841	23.88778208804775	58.38167409454692	48.14347704734804	0	0	6.703474423052136	-4.234865785923251	-6.048175720752581	6.027798158096406	109.7732104833263	0	0
12.09999999999983	-0.02852258945987118	-1.138095668256675	43.72160915039028	0	0.9399999999999999	0	31.15229864230955	-9.435085964744584	-8.782215890117417	33.83487704379562	0.5905300064216793	0	0	0	31.15229864230955	-9.435085964744584	-8.782215890117417	33.83487704379562	0.5905300064216793	0	0	0	-0.1415128690205117	-1.181381208966423	12.33571282110698	75.42540192056654	-9.492352618382034	24.79042266882499	58.04636263366006	48.162176130525	0	0	6.685611759497741	-4.276016740765305	-5.885209609295912	6.036824244578456	109.6552790840213	0	0
12.11999999999983	0.01161272056655379	-1.150096287063686	43.9620070451154	0	0.9399999999999999	0	31.15656481492886	-9.435672177699644	-8.783027446891294	33.8395990824447	0.590612421543512	0	0	0	31.15656481492886	-9.435672177699644	-8.783027446891294	33.8395990824447	0.590612421543512	0	0	0	-0.1208029938513431	-1.216149314000031	12.30170999142938	76.52819976347826	-9.206594415901616	25.64657426348067	57.57188800626323	48.12624749574241	0	0	6.687735064151074	-4.311417498453593	-5.718232376380981	6.047373008524035	109.6284593372044	0	0
12.13999999999983	0.05475873340911938	-1.135540221951074	44.28201444706654	0	0.9399999999999999	0	31.16397779584528	-9.436692249467876	-8.784439149743172	33.84778773727201	0.590755340531558	0	0	0	31.16397779584528	-9.436692249467876	-8.784439149743172	33.84778773727201	0.590755340531558	0	0	0	-0.0816711696785675	-1.235694417166513	12.11922566844139	78.517099750119	-8.44345824981237	27.59347231567236	56.0080890883596	47.17257774794399	0	0	6.630100141338021	-4.362852770760965	-5.572816824110585	6.042380886833887	109.5563434417574	0	0
12.15999999999983	0.07253557781721463	-1.143622384200212	44.46594791503583	0	0.9399999999999999	0	31.16815624217135	-9.43726542640251	-8.785233398789201	33.85241250932621	0.5908360580310581	0	0	0	31.16815624217135	-9.43726542640251	-8.785233398789201	33.85241250932621	0.5908360580310581	0	0	0	-0.07495023355405157	-1.252690901344377	12.06834832746966	79.37455145150128	-8.150004449548863	28.44745679262833	55.60226566049167	47.12521595692198	0	0	6.632017637081515	-4.387351303256672	-5.558229401233289	6.057913996598905	109.5708116785241	0	0
12.17999999999983	0.1007661868782736	-1.138507859995779	44.65190063783219	0	0.9399999999999999	0	31.17275306790931	-9.437896177906577	-8.786107442517249	33.8574961891222	0.5909247849816152	0	0	0	31.17275306790931	-9.437896177906577	-8.786107442517249	33.8574961891222	0.5909247849816152	0	0	0	-0.05158172501911408	-1.268002328299264	12.02423781122998	80.17393437796132	-7.844328518122693	29.28436636677567	54.96261187497282	47.1456130436022	0	0	6.640259155661072	-4.406248868965958	-5.608215615835992	6.022227179360819	109.7109948618739	0	0
12.19999999999983	0.1338216049627236	-1.13517209504721	44.84313785475481	0	0.9399999999999999	0	31.1780954620199	-9.43862817329582	-8.787122460765932	33.86340752430604	0.5910279572437621	0	0	0	31.1780954620199	-9.43862817329582	-8.787122460765932	33.86340752430604	0.5910279572437621	0	0	0	-0.02567888326035214	-1.287780173179517	11.98132001170516	80.9302440838548	-7.575314495037095	29.9984149440409	54.13786515668767	48.2529120611911	0	0	6.634576276035586	-4.459587574897493	-5.614621758691981	6.052746914093341	109.601802309851	0	0
